<?xml version="1.0" encoding="UTF-8" standalone="no"?>
<!-- Created with Inkscape (http://www.inkscape.org/) -->

<svg
   xmlns:dc="http://purl.org/dc/elements/1.1/"
   xmlns:cc="http://creativecommons.org/ns#"
   xmlns:rdf="http://www.w3.org/1999/02/22-rdf-syntax-ns#"
   xmlns:svg="http://www.w3.org/2000/svg"
   xmlns="http://www.w3.org/2000/svg"
   xmlns:sodipodi="http://sodipodi.sourceforge.net/DTD/sodipodi-0.dtd"
   xmlns:inkscape="http://www.inkscape.org/namespaces/inkscape"
   width="256"
   height="256"
   viewBox="0 0 67.733332 67.733335"
   version="1.1"
   id="svg8"
   inkscape:version="0.92.2 5c3e80d, 2017-08-06"
   sodipodi:docname="lazzier-logo.svg"
   inkscape:export-filename="/opt/Projects/DREIPC/lazzier/docs/resources/lazzier-logo.png"
   inkscape:export-xdpi="96"
   inkscape:export-ydpi="96">
  <defs
     id="defs2" />
  <sodipodi:namedview
     id="base"
     pagecolor="#ffffff"
     bordercolor="#666666"
     borderopacity="1.0"
     inkscape:pageopacity="0.0"
     inkscape:pageshadow="2"
     inkscape:zoom="1"
     inkscape:cx="-91.585366"
     inkscape:cy="240.99203"
     inkscape:document-units="px"
     inkscape:current-layer="layer1"
     showgrid="false"
     units="px"
     inkscape:window-width="1920"
     inkscape:window-height="1021"
     inkscape:window-x="0"
     inkscape:window-y="0"
     inkscape:window-maximized="1"
     showguides="true" />
  <metadata
     id="metadata5">
    <rdf:RDF>
      <cc:Work
         rdf:about="">
        <dc:format>image/svg+xml</dc:format>
        <dc:type
           rdf:resource="http://purl.org/dc/dcmitype/StillImage" />
        <dc:title></dc:title>
      </cc:Work>
    </rdf:RDF>
  </metadata>
  <g
     inkscape:label="Layer 1"
     inkscape:groupmode="layer"
     id="layer1"
     transform="translate(0,-229.26665)"
     style="display:inline">
    <g
       id="g1342"
       transform="translate(0.4232033,12.700002)">
      <path
         inkscape:connector-curvature="0"
         style="opacity:1;fill:#483e37;fill-opacity:1;stroke:none;stroke-width:1.61891246;stroke-linecap:round;stroke-linejoin:round;stroke-miterlimit:4;stroke-dasharray:none;stroke-dashoffset:0;stroke-opacity:1;paint-order:markers fill stroke"
         d="m 33.443462,237.83561 c -16.960538,0 -31.6448481,9.4783 -31.6448481,25.90217 0,12.6669 14.6843101,18.68475 31.6448481,18.68475 16.960539,0 31.644851,-6.01785 31.644851,-18.68475 0,-16.42387 -14.684312,-25.90217 -31.644851,-25.90217 z"
         id="path1308"
         sodipodi:nodetypes="sssss" />
      <path
         inkscape:connector-curvature="0"
         style="opacity:1;fill:#ac9d93;fill-opacity:1;stroke:none;stroke-width:1.95726824;stroke-linecap:round;stroke-linejoin:round;stroke-miterlimit:4;stroke-dasharray:none;stroke-dashoffset:0;stroke-opacity:1;paint-order:markers fill stroke"
         d="m 23.131856,245.31851 c -10.241699,0 -19.5099975,13.11727 -19.5100012,19.90262 -5.3e-6,9.50017 13.3515542,17.2014 29.8216072,17.2014 16.470054,0 29.821614,-7.70124 29.821609,-17.2014 -4e-6,-6.78535 -9.268303,-19.90262 -19.510001,-19.90262 -4.928956,0 -5.605031,2.20669 -10.311608,2.20669 -4.706575,0 -5.38265,-2.20669 -10.311606,-2.20669 z"
         id="path1310"
         sodipodi:nodetypes="sssssss" />
      <path
         inkscape:connector-curvature="0"
         style="opacity:1;fill:#1a1a1a;fill-opacity:1;stroke:none;stroke-width:1.74517572;stroke-linecap:round;stroke-linejoin:round;stroke-miterlimit:4;stroke-dasharray:none;stroke-dashoffset:0;stroke-opacity:1;paint-order:markers fill stroke"
         d="m 33.443462,257.60735 c -2.696068,0 -7.759163,2.55246 -7.75916,5.09131 -3e-6,2.53883 3.47385,3.60842 7.75916,3.60842 4.285312,0 7.759166,-1.06959 7.759162,-3.60842 4e-6,-2.53885 -5.063092,-5.09131 -7.759162,-5.09131 z"
         id="path1312" />
      <path
         inkscape:connector-curvature="0"
         style="opacity:0.8;fill:#6c5d53;fill-opacity:1;stroke:none;stroke-width:1.81727815;stroke-linecap:round;stroke-linejoin:round;stroke-miterlimit:4;stroke-dasharray:none;stroke-dashoffset:0;stroke-opacity:1;paint-order:markers fill stroke"
         d="m 16.258059,255.19643 c -2.026434,-0.0138 -3.978133,0.3808 -4.976584,1.18928 L 4.1063171,262.196 c -0.3130372,1.09014 -0.4844619,2.11567 -0.4844623,3.02513 -1.6e-6,2.98579 1.3196678,5.79383 3.6396324,8.241 L 20.188552,262.99417 c 2.282174,-1.84796 4.133735,-3.31578 2.38624,-5.72916 -0.982966,-1.35753 -3.711318,-2.05075 -6.316733,-2.06858 z"
         id="path1314" />
      <ellipse
         style="opacity:1;fill:#1a1a1a;fill-opacity:1;stroke:none;stroke-width:1.61720109;stroke-linecap:round;stroke-linejoin:round;stroke-miterlimit:4;stroke-dasharray:none;stroke-dashoffset:0;stroke-opacity:1;paint-order:markers fill stroke"
         id="ellipse1316"
         cx="-46.724846"
         cy="255.05519"
         rx="3.0896888"
         ry="2.0158634"
         transform="matrix(0.96212127,-0.27262184,0.24561905,0.96936643,0,0)" />
      <path
         inkscape:connector-curvature="0"
         style="opacity:1;fill:#1a1a1a;fill-opacity:1;stroke:none;stroke-width:2.18735361;stroke-linecap:round;stroke-linejoin:round;stroke-miterlimit:4;stroke-dasharray:none;stroke-dashoffset:0;stroke-opacity:1;paint-order:markers fill stroke"
         d="m 33.443462,266.99709 c -3.103439,2.00866 -6.917496,1.93281 -10.427585,0.84935 3.96158,1.84216 6.240277,2.1161 10.427585,2.11688 4.18731,-7.5e-4 6.466006,-0.27472 10.427588,-2.11688 -3.510091,1.08346 -7.324147,1.15931 -10.427588,-0.84935 z"
         id="path1318" />
      <path
         id="path1320"
         d="m 50.628867,255.19643 c 2.026433,-0.0138 3.978134,0.3808 4.976584,1.18928 l 7.175158,5.81029 c 0.313037,1.09014 0.484462,2.11567 0.484462,3.02513 2e-6,2.98579 -1.319667,5.79383 -3.639631,8.241 L 46.698373,262.99417 c -2.282172,-1.84796 -4.133733,-3.31578 -2.386239,-5.72916 0.982967,-1.35753 3.711318,-2.05075 6.316733,-2.06858 z"
         style="opacity:0.8;fill:#6c5d53;fill-opacity:1;stroke:none;stroke-width:1.81727815;stroke-linecap:round;stroke-linejoin:round;stroke-miterlimit:4;stroke-dasharray:none;stroke-dashoffset:0;stroke-opacity:1;paint-order:markers fill stroke"
         inkscape:connector-curvature="0" />
      <ellipse
         transform="matrix(-0.96212127,-0.27262184,-0.24561906,0.96936643,0,0)"
         ry="2.0158634"
         rx="3.0896888"
         cy="236.81322"
         cx="-111.58813"
         id="ellipse1322"
         style="opacity:1;fill:#1a1a1a;fill-opacity:1;stroke:none;stroke-width:1.61720109;stroke-linecap:round;stroke-linejoin:round;stroke-miterlimit:4;stroke-dasharray:none;stroke-dashoffset:0;stroke-opacity:1;paint-order:markers fill stroke" />
    </g>
  </g>
</svg>
